<?xml version="1.0" encoding="UTF-8"?>
<svg width="491px" height="125px" viewBox="0 0 491 125" version="1.1" xmlns="http://www.w3.org/2000/svg" xmlns:xlink="http://www.w3.org/1999/xlink">
    <!-- Generator: Sketch 63.1 (92452) - https://sketch.com -->
    <title>Group 3 Copy</title>
    <desc>Created with Sketch.</desc>
    <defs>
        <path d="M168.432,123.856 C174.576,123.856 178.32,122.56 179.664,119.968 C180.432,118.528 180.888,117.256 181.032,116.152 C181.176,115.048 181.248,113.392 181.248,111.184 L181.248,94.912 L199.248,94.912 C207.792,94.912 216.048,91.84 224.016,85.696 C227.952,82.72 231.168,78.712 233.664,73.672 C236.16,68.632 237.408,62.992 237.408,56.752 C237.408,50.512 236.16,44.848 233.664,39.76 C231.168,34.672 227.952,30.64 224.016,27.664 C216.048,21.52 207.84,18.448 199.392,18.448 L199.392,18.448 L168.576,18.448 C162.432,18.448 158.688,19.744 157.344,22.336 C156.576,23.776 156.12,25.048 155.976,26.152 C155.832,27.256 155.76,28.912 155.76,31.12 L155.76,111.04 C155.76,114.4 156.048,116.896 156.624,118.528 C157.776,122.08 161.712,123.856 168.432,123.856 Z M199.392,69.424 L181.248,69.424 L181.248,43.936 L199.248,43.936 C202.224,43.936 205.104,45.016 207.888,47.176 C210.672,49.336 212.064,52.528 212.064,56.752 C212.064,60.976 210.672,64.144 207.888,66.256 C205.104,68.368 202.272,69.424 199.392,69.424 L199.392,69.424 Z M265.2,123.424 C274.608,124.576 280.56,124.288 283.056,122.56 C284.976,121.216 285.936,117.52 285.936,111.472 C285.936,105.904 284.976,102.496 283.056,101.248 C282.096,100.576 281.28,100.168 280.608,100.024 C279.936,99.88 278.616,99.808 276.648,99.808 C274.68,99.808 273.408,99.352 272.832,98.44 C272.256,97.528 271.968,95.344 271.968,91.888 L271.968,91.888 L271.968,25.216 C271.968,23.008 271.896,21.328 271.752,20.176 C271.608,19.024 271.152,17.728 270.384,16.288 C268.944,13.696 265.296,12.4 259.44,12.4 C253.296,12.4 249.552,13.696 248.208,16.288 C247.536,17.728 247.128,19 246.984,20.104 C246.84,21.208 246.768,22.864 246.768,25.072 L246.768,93.616 C246.768,103.888 248.112,111.376 250.8,116.08 C253.008,120.016 257.808,122.464 265.2,123.424 Z M355.488,123.856 C361.44,123.856 365.136,122.608 366.576,120.112 C367.344,118.768 367.8,117.544 367.944,116.44 C368.088,115.336 368.16,113.728 368.16,111.616 L368.16,111.616 L368.16,60.64 C368.16,58.432 368.088,56.776 367.944,55.672 C367.8,54.568 367.392,53.296 366.72,51.856 C365.376,49.264 361.68,47.968 355.632,47.968 C349.488,47.968 345.792,49.216 344.544,51.712 C343.776,53.152 343.32,54.424 343.176,55.528 C343.032,56.632 342.96,58.288 342.96,60.496 L342.96,85.984 C342.96,89.728 341.784,92.752 339.432,95.056 C337.08,97.36 334.008,98.512 330.216,98.512 C326.424,98.512 323.4,97.408 321.144,95.2 C318.888,92.992 317.76,89.92 317.76,85.984 L317.76,85.984 L317.76,60.784 C317.76,57.424 317.472,54.976 316.896,53.44 C315.744,49.792 311.808,47.968 305.088,47.968 C298.944,47.968 295.2,49.264 293.856,51.856 C293.184,53.296 292.776,54.544 292.632,55.6 C292.488,56.656 292.416,58.336 292.416,60.64 L292.416,85.84 C292.416,96.4 295.608,105.352 301.992,112.696 C308.376,120.04 316.416,123.712 326.112,123.712 C329.952,123.712 333.504,122.656 336.768,120.544 C338.016,119.68 339.312,118.624 340.656,117.376 C342,116.128 342.864,115.168 343.248,114.496 C343.248,116.8 343.728,118.768 344.688,120.4 C346.032,122.704 349.632,123.856 355.488,123.856 Z M478.032,124 C484.176,124 487.872,122.704 489.12,120.112 C489.888,118.672 490.344,117.4 490.488,116.296 C490.632,115.192 490.704,113.536 490.704,111.328 L490.704,111.328 L490.704,86.128 C490.704,72.496 488.112,62.728 482.928,56.824 C477.744,50.92 471.312,47.968 463.632,47.968 C460.176,47.968 456.816,48.904 453.552,50.776 C450.288,52.648 447.912,54.376 446.424,55.96 C444.936,57.544 443.664,59.056 442.608,60.496 C437.808,52.144 430.512,47.968 420.72,47.968 C414.384,47.968 408.96,51.376 404.448,58.192 C404.448,54.928 403.632,52.432 402,50.704 C400.368,48.976 396.864,48.112 391.488,48.112 C386.112,48.112 382.704,49.408 381.264,52 C380.496,53.344 380.04,54.568 379.896,55.672 C379.752,56.776 379.68,58.432 379.68,60.64 L379.68,111.728111 C379.68872,113.827488 379.760471,115.374118 379.896,116.368 C380.04,117.424 380.448,118.672 381.12,120.112 C382.464,122.704 386.16,124 392.208,124 C398.256,124 402,122.752 403.44,120.256 C404.208,118.816 404.664,117.544 404.808,116.44 C404.952,115.336 405.024,113.68 405.024,111.472 L405.024,111.472 L405.024,85.984 C405.024,77.632 407.904,73.456 413.664,73.456 C419.616,73.456 422.592,77.632 422.592,85.984 L422.592,85.984 L422.592844,111.591531 C422.601281,113.596844 422.673,115.117 422.808,116.152 C422.952,117.256 423.36,118.528 424.032,119.968 C425.376,122.656 429.072,124 435.12,124 C441.264,124 445.008,122.704 446.352,120.112 C447.12,118.672 447.576,117.424 447.72,116.368 C447.864,115.312 447.936,113.632 447.936,111.328 L447.936,111.328 L447.936,86.128 C447.936,82.096 448.536,78.976 449.736,76.768 C450.936,74.56 453.216,73.456 456.576,73.456 C462.528,73.456 465.504,77.632 465.504,85.984 L465.504,85.984 L465.504844,111.591531 C465.513281,113.596844 465.585,115.117 465.72,116.152 C465.864,117.256 466.272,118.528 466.944,119.968 C468.288,122.656 471.984,124 478.032,124 Z" id="path-1"></path>
    </defs>
    <g id="Page-1" stroke="none" stroke-width="1" fill="none" fill-rule="evenodd">
        <g id="Artboard-Copy-2" transform="translate(-144.000000, -123.000000)" fill-rule="nonzero">
            <g id="Group-3-Copy" transform="translate(144.000000, 123.000000)">
                <g id="Plum">
                    <use fill="#4A4A4A" xlink:href="#path-1"></use>
                    <use fill="#E06358" xlink:href="#path-1"></use>
                </g>
                <g id="Plum-Graphic-2" fill="#E06358">
                    <path d="M41.4666667,124 C45.7333333,124 50,123.303704 54,121.795062 C58,123.187654 62.2666667,124 66.5333333,124 C89.4666667,124 108,102.879012 108,77 C108,51.1209877 89.3333333,30 66.5333333,30 C64.2666667,30 62.5333333,31.508642 62.5333333,33.4814815 C62.5333333,35.454321 64.2666667,36.962963 66.5333333,36.962963 C74.5333333,36.962963 82,40.3283951 87.7333333,46.0148148 C80.4,45.782716 72.9333333,51.4691358 75.7333333,59.2444444 C75.7333333,59.3604938 75.8666667,59.4765432 75.8666667,59.5925926 C77.8666667,64.9308642 78.9333333,70.8493827 78.9333333,77 C78.9333333,90.4617284 73.6,102.530864 65.3333333,110.538272 C65.3333333,110.538272 65.2,110.654321 65.2,110.654321 C63.2,112.62716 63.3333333,115.296296 64.9333333,117.037037 C61.7333333,116.920988 58.6666667,116.108642 55.6,114.948148 C55.4666667,114.948148 55.4666667,114.948148 55.3333333,114.832099 C55.2,114.832099 55.2,114.832099 55.0666667,114.716049 C54.9333333,114.716049 54.6666667,114.6 54.5333333,114.6 C54.5333333,114.6 54.4,114.6 54.4,114.6 C54.2666667,114.6 54,114.6 53.8666667,114.6 C53.8666667,114.6 53.7333333,114.6 53.7333333,114.6 C53.4666667,114.6 53.3333333,114.6 53.0666667,114.716049 C53.0666667,114.716049 52.9333333,114.716049 52.9333333,114.716049 C52.6666667,114.716049 52.5333333,114.832099 52.2666667,114.948148 C52.2666667,114.948148 52.2666667,114.948148 52.2666667,114.948148 C48.8,116.340741 45.2,117.037037 41.4666667,117.037037 C22.9333333,117.037037 8,99.0493827 8,77 C8,54.9506173 23.0666667,36.962963 41.4666667,36.962963 C43.7333333,36.962963 45.4666667,35.454321 45.4666667,33.4814815 C45.4666667,31.508642 43.7333333,30 41.4666667,30 C18.5333333,30 0,51.1209877 0,77 C0,102.995062 18.6666667,124 41.4666667,124 Z" id="Path"></path>
                    <path d="M33.7949399,53.2324415 C31.7543274,52.5363917 29.3055924,53.4644581 28.4893475,55.2045825 C25.4964492,61.8170553 24,68.8935613 24,76.4341005 C24,85.1347226 26.1766533,93.6033281 30.2578783,101.027859 C30.9380824,102.30395 32.4345316,103 33.9309807,103 C34.4751441,103 35.1553482,102.883992 35.6995115,102.651975 C37.740124,101.839917 38.556369,99.7517677 37.6040832,98.0116433 C34.0670216,91.5151788 32.1624499,84.0906479 32.1624499,76.4341005 C32.1624499,69.937636 33.5228582,63.4411715 36.107634,57.756765 C36.923879,55.9006323 35.8355524,53.9284913 33.7949399,53.2324415 Z" id="Path"></path>
                    <path d="M52.9046828,36 C55.1173364,36 56.8093656,34.4916876 56.8093656,32.5192791 C56.8093656,28.9225342 57.3299899,25.4418134 58.5013948,22.0771165 C60.3235801,16.3919391 63.5774824,11.1708578 68.0027895,6.76194473 C69.4345066,5.36965639 69.3043505,3.16519984 67.7424774,1.88893552 C66.1806042,0.612671204 63.7076385,0.728695233 62.2759215,2.12098358 C57.0696778,7.22604085 53.164995,13.4913384 50.9523414,20.2207321 C49.6507805,24.2815731 49,28.4584381 49,32.6353032 C49,34.3756636 50.6920292,36 52.9046828,36 Z" id="Path"></path>
                    <path d="M83.3986043,8.72312704 C88.732287,6.23887079 95.1327064,6.01302932 102.599862,7.93268187 C100.733073,10.7557003 97.3995216,14.7079262 91.6658126,17.1921824 C85.5320774,19.7893594 77.9315794,19.7893594 69.2643449,17.3051031 C67.1308718,16.7404995 64.8640566,17.6438654 64.1973463,19.4505972 C63.5306359,21.257329 64.5973725,23.1769815 66.7308456,23.7415852 C71.7978442,25.2095548 76.7315008,26 81.2651311,26 C86.3321298,26 90.9991022,25.0966341 95.2660484,23.2899023 C107.400177,18.2084691 111.667123,7.59391965 111.800465,7.1422367 C112.467175,5.44842562 111.400439,3.64169381 109.53365,2.96416938 C98.0662319,-0.98805646 87.9322346,-0.98805646 79.5316842,2.96416938 C77.6648953,3.86753529 76.8648429,5.90010858 77.9315794,7.59391965 C79.131658,9.06188925 81.5318153,9.62649294 83.3986043,8.72312704 Z" id="Path"></path>
                </g>
            </g>
        </g>
    </g>
</svg>